<svg width="25" height="34" viewBox="0 0 25 34" fill="none" xmlns="http://www.w3.org/2000/svg">
<path d="M24.3075 18.728C24.3075 20.7686 23.5809 22.5131 22.1277 23.9613C19.2709 26.8083 16.4141 29.6554 13.5574 32.5024C11.5758 34.4772 8.47128 34.4937 6.53924 32.5518C4.59068 30.6099 4.6237 27.5489 6.6218 25.5576C9.72629 22.4472 12.8473 19.3533 15.9518 16.2594C17.3884 14.8112 17.438 13.7909 16.1334 12.211C16.0178 12.0629 15.9848 11.8325 15.9022 11.635C16.1169 11.5528 16.3481 11.4211 16.5793 11.4046C20.7736 11.1413 24.3075 14.4985 24.3075 18.728Z" fill="black"/>
<path d="M7.4146 21.8053C4.14498 21.6078 1.88267 20.1431 0.611152 17.2961C-0.594313 14.5971 0.0331895 11.4209 2.11386 9.31445C4.72295 6.68135 7.34855 4.0647 9.99066 1.4645C11.9723 -0.493872 15.0272 -0.477415 16.9592 1.43159C18.8748 3.34059 18.9078 6.40158 16.9592 8.37641C14.7795 10.631 12.5337 12.8198 10.3209 15.025C9.54481 15.7985 8.75217 16.5555 7.99256 17.3619C7.08434 18.2999 7.05131 19.6165 7.82743 20.571C8.05862 20.8672 8.22375 21.2293 8.4054 21.5584C8.0421 21.6407 7.64579 21.7394 7.4146 21.8053Z" fill="black"/>
</svg>
